<svg xmlns="http://www.w3.org/2000/svg" viewBox="0 0 1200 920" font-family="Inter, -apple-system, system-ui, sans-serif">
  <defs>
    <marker id="arrow" markerWidth="10" markerHeight="7" refX="9" refY="3.5" orient="auto">
      <polygon points="0 0, 10 3.5, 0 7" fill="#64748b"/>
    </marker>
    <marker id="arrow-green" markerWidth="10" markerHeight="7" refX="9" refY="3.5" orient="auto">
      <polygon points="0 0, 10 3.5, 0 7" fill="#16a34a"/>
    </marker>
    <marker id="arrow-red" markerWidth="10" markerHeight="7" refX="9" refY="3.5" orient="auto">
      <polygon points="0 0, 10 3.5, 0 7" fill="#dc2626"/>
    </marker>
    <marker id="arrow-blue" markerWidth="10" markerHeight="7" refX="9" refY="3.5" orient="auto">
      <polygon points="0 0, 10 3.5, 0 7" fill="#2563eb"/>
    </marker>
    <marker id="arrow-orange" markerWidth="10" markerHeight="7" refX="9" refY="3.5" orient="auto">
      <polygon points="0 0, 10 3.5, 0 7" fill="#ea580c"/>
    </marker>
    <marker id="arrow-purple" markerWidth="10" markerHeight="7" refX="9" refY="3.5" orient="auto">
      <polygon points="0 0, 10 3.5, 0 7" fill="#7c3aed"/>
    </marker>
    <filter id="shadow" x="-4%" y="-4%" width="108%" height="108%">
      <feDropShadow dx="0" dy="2" stdDeviation="3" flood-color="#000" flood-opacity="0.08"/>
    </filter>
    <linearGradient id="bg" x1="0" y1="0" x2="0" y2="1">
      <stop offset="0%" stop-color="#f8fafc"/>
      <stop offset="100%" stop-color="#f1f5f9"/>
    </linearGradient>
    <linearGradient id="phase1-grad" x1="0" y1="0" x2="1" y2="0">
      <stop offset="0%" stop-color="#dbeafe"/>
      <stop offset="100%" stop-color="#eff6ff"/>
    </linearGradient>
    <linearGradient id="phase2-grad" x1="0" y1="0" x2="1" y2="0">
      <stop offset="0%" stop-color="#fef3c7"/>
      <stop offset="100%" stop-color="#fffbeb"/>
    </linearGradient>
    <linearGradient id="fail-grad" x1="0" y1="0" x2="1" y2="0">
      <stop offset="0%" stop-color="#fee2e2"/>
      <stop offset="100%" stop-color="#fef2f2"/>
    </linearGradient>
  </defs>

  <!-- Background -->
  <rect width="1200" height="920" rx="12" fill="url(#bg)"/>

  <!-- Title -->
  <text x="600" y="42" text-anchor="middle" font-size="22" font-weight="700" fill="#0f172a">RFC-001: Optimistic Execution — End-to-End Workflow</text>
  <text x="600" y="64" text-anchor="middle" font-size="13" fill="#64748b">Tokamak Execution Kernel — Chain-Agnostic Two-Phase Architecture with WSTON Staking</text>

  <!-- ==================== PHASE 1 LANE ==================== -->
  <rect x="30" y="88" width="1140" height="280" rx="10" fill="url(#phase1-grad)" stroke="#93c5fd" stroke-width="1.2"/>
  <rect x="30" y="88" width="180" height="30" rx="10" fill="#2563eb"/>
  <text x="120" y="108" text-anchor="middle" font-size="12" font-weight="600" fill="#fff">PHASE 1 — Immediate (&lt;1s)</text>

  <!-- Host side label -->
  <text x="56" y="148" font-size="10" font-weight="600" fill="#1e40af" letter-spacing="1">HOST (OFF-CHAIN)</text>

  <!-- Step 1: Build Input -->
  <rect x="56" y="160" width="150" height="56" rx="8" fill="#fff" stroke="#93c5fd" stroke-width="1.2" filter="url(#shadow)"/>
  <text x="131" y="183" text-anchor="middle" font-size="11" font-weight="600" fill="#1e3a8a">Build Kernel Input</text>
  <text x="131" y="198" text-anchor="middle" font-size="10" fill="#64748b">KernelInputV1 + encode</text>

  <!-- Arrow -->
  <line x1="206" y1="188" x2="238" y2="188" stroke="#64748b" stroke-width="1.5" marker-end="url(#arrow)"/>

  <!-- Step 2: Reconstruct Output -->
  <rect x="240" y="160" width="160" height="56" rx="8" fill="#fff" stroke="#93c5fd" stroke-width="1.2" filter="url(#shadow)"/>
  <text x="320" y="183" text-anchor="middle" font-size="11" font-weight="600" fill="#1e3a8a">Reconstruct Output</text>
  <text x="320" y="198" text-anchor="middle" font-size="10" fill="#64748b">agent_main() on host</text>

  <!-- Arrow -->
  <line x1="400" y1="188" x2="432" y2="188" stroke="#64748b" stroke-width="1.5" marker-end="url(#arrow)"/>

  <!-- Step 3: Predict Journal -->
  <rect x="434" y="160" width="160" height="56" rx="8" fill="#dbeafe" stroke="#2563eb" stroke-width="1.5" filter="url(#shadow)"/>
  <text x="514" y="178" text-anchor="middle" font-size="11" font-weight="700" fill="#1e3a8a">Predict Journal</text>
  <text x="514" y="193" text-anchor="middle" font-size="9" fill="#3b82f6">predict.rs — no zkVM</text>
  <text x="514" y="206" text-anchor="middle" font-size="9" fill="#64748b">209 bytes deterministic</text>

  <!-- Arrow -->
  <line x1="594" y1="188" x2="626" y2="188" stroke="#64748b" stroke-width="1.5" marker-end="url(#arrow)"/>

  <!-- Step 4: Approve WSTON -->
  <rect x="628" y="160" width="150" height="56" rx="8" fill="#f5f3ff" stroke="#7c3aed" stroke-width="1.5" filter="url(#shadow)"/>
  <text x="703" y="178" text-anchor="middle" font-size="11" font-weight="700" fill="#5b21b6">Approve WSTON</text>
  <text x="703" y="193" text-anchor="middle" font-size="9" fill="#7c3aed">ERC20.approve()</text>
  <text x="703" y="206" text-anchor="middle" font-size="9" fill="#64748b">Operator stakes bond</text>

  <!-- Arrow down to on-chain -->
  <path d="M 514 216 L 514 248 L 560 248 L 560 278" stroke="#2563eb" stroke-width="1.8" fill="none" marker-end="url(#arrow-blue)"/>

  <!-- On-chain label -->
  <text x="56" y="268" font-size="10" font-weight="600" fill="#1e40af" letter-spacing="1">ON-CHAIN (ANY EVM)</text>

  <!-- Step 5: executeOptimistic -->
  <rect x="460" y="278" width="200" height="72" rx="8" fill="#2563eb" filter="url(#shadow)"/>
  <text x="560" y="299" text-anchor="middle" font-size="12" font-weight="700" fill="#fff">executeOptimistic()</text>
  <text x="560" y="315" text-anchor="middle" font-size="9.5" fill="#bfdbfe">Parse journal (no proof)</text>
  <text x="560" y="329" text-anchor="middle" font-size="9.5" fill="#bfdbfe">Verify oracle + nonce + commitment</text>
  <text x="560" y="343" text-anchor="middle" font-size="9.5" fill="#bfdbfe">Execute actions + lock WSTON bond</text>

  <!-- Arrow right to pending -->
  <line x1="660" y1="314" x2="702" y2="314" stroke="#2563eb" stroke-width="1.5" marker-end="url(#arrow-blue)"/>

  <!-- PendingExecution storage -->
  <rect x="704" y="280" width="160" height="68" rx="8" fill="#eff6ff" stroke="#2563eb" stroke-width="1.2" filter="url(#shadow)"/>
  <text x="784" y="300" text-anchor="middle" font-size="11" font-weight="600" fill="#1e3a8a">PendingExecution</text>
  <text x="784" y="315" text-anchor="middle" font-size="9" fill="#64748b">journalHash: sha256(j)</text>
  <text x="784" y="328" text-anchor="middle" font-size="9" fill="#64748b">deadline: now + window</text>
  <text x="784" y="341" text-anchor="middle" font-size="9" fill="#64748b">status: PENDING (1)</text>

  <!-- Bond Manager -->
  <rect x="910" y="278" width="200" height="72" rx="8" fill="#f5f3ff" stroke="#7c3aed" stroke-width="1.5" filter="url(#shadow)"/>
  <text x="1010" y="298" text-anchor="middle" font-size="11" font-weight="700" fill="#5b21b6">WSTONBondManager</text>
  <text x="1010" y="314" text-anchor="middle" font-size="9.5" fill="#7c3aed">lockBond() via transferFrom</text>
  <text x="1010" y="328" text-anchor="middle" font-size="9.5" fill="#64748b">WSTON (ERC20) escrowed</text>
  <text x="1010" y="342" text-anchor="middle" font-size="9.5" fill="#64748b">bonds[op][vault][nonce]</text>

  <line x1="864" y1="314" x2="908" y2="314" stroke="#7c3aed" stroke-width="1.2" marker-end="url(#arrow-purple)"/>

  <!-- Actions execute indicator -->
  <rect x="460" y="352" width="200" height="4" rx="2" fill="#16a34a"/>

  <!-- Main thread returns -->
  <rect x="56" y="290" width="180" height="52" rx="8" fill="#dcfce7" stroke="#16a34a" stroke-width="1.5" filter="url(#shadow)"/>
  <text x="146" y="311" text-anchor="middle" font-size="11" font-weight="700" fill="#166534">Main Thread Returns</text>
  <text x="146" y="326" text-anchor="middle" font-size="9.5" fill="#16a34a">Ready for next cycle</text>

  <!-- Cycle arrow -->
  <path d="M 236 316 C 290 316 290 138 240 138 L 80 138 C 46 138 46 166 56 176" stroke="#16a34a" stroke-width="1.2" fill="none" stroke-dasharray="4,3" marker-end="url(#arrow-green)"/>
  <text x="170" y="133" text-anchor="middle" font-size="8.5" fill="#16a34a" font-weight="600">NEXT CYCLE (no wait)</text>

  <!-- ==================== PHASE 2 LANE ==================== -->
  <rect x="30" y="384" width="1140" height="220" rx="10" fill="url(#phase2-grad)" stroke="#fbbf24" stroke-width="1.2"/>
  <rect x="30" y="384" width="220" height="30" rx="10" fill="#d97706"/>
  <text x="140" y="404" text-anchor="middle" font-size="12" font-weight="600" fill="#fff">PHASE 2 — Async Proving (8-12 min)</text>

  <!-- Host side -->
  <text x="56" y="438" font-size="10" font-weight="600" fill="#92400e" letter-spacing="1">BACKGROUND WORKER (prove_worker.rs)</text>

  <!-- Queue -->
  <rect x="56" y="452" width="150" height="52" rx="8" fill="#fff" stroke="#fbbf24" stroke-width="1.2" filter="url(#shadow)"/>
  <text x="131" y="473" text-anchor="middle" font-size="11" font-weight="600" fill="#78350f">Proof Queue</text>
  <text x="131" y="488" text-anchor="middle" font-size="9.5" fill="#64748b">Arc&lt;Mutex&lt;VecDeque&gt;&gt;</text>

  <line x1="206" y1="478" x2="244" y2="478" stroke="#64748b" stroke-width="1.5" marker-end="url(#arrow)"/>

  <!-- Generate Proof -->
  <rect x="246" y="448" width="170" height="60" rx="8" fill="#fef3c7" stroke="#d97706" stroke-width="1.5" filter="url(#shadow)"/>
  <text x="331" y="470" text-anchor="middle" font-size="11" font-weight="700" fill="#78350f">Generate Groth16 Proof</text>
  <text x="331" y="486" text-anchor="middle" font-size="9.5" fill="#92400e">RISC Zero zkVM</text>
  <text x="331" y="499" text-anchor="middle" font-size="9.5" fill="#92400e">8-12 minutes</text>

  <line x1="416" y1="478" x2="448" y2="478" stroke="#64748b" stroke-width="1.5" marker-end="url(#arrow)"/>

  <!-- Extract seal -->
  <rect x="450" y="452" width="130" height="52" rx="8" fill="#fff" stroke="#fbbf24" stroke-width="1.2" filter="url(#shadow)"/>
  <text x="515" y="473" text-anchor="middle" font-size="11" font-weight="600" fill="#78350f">Extract Seal</text>
  <text x="515" y="488" text-anchor="middle" font-size="9.5" fill="#64748b">Groth16 proof bytes</text>

  <!-- Arrow down to on-chain -->
  <line x1="515" y1="504" x2="515" y2="556" stroke="#16a34a" stroke-width="1.8" marker-end="url(#arrow-green)"/>

  <!-- On-chain label -->
  <text x="56" y="552" font-size="10" font-weight="600" fill="#92400e" letter-spacing="1">ON-CHAIN FINALIZATION</text>

  <!-- submitProof -->
  <rect x="435" y="556" width="160" height="36" rx="8" fill="#16a34a" filter="url(#shadow)"/>
  <text x="515" y="579" text-anchor="middle" font-size="12" font-weight="700" fill="#fff">submitProof(nonce, seal)</text>

  <line x1="595" y1="574" x2="637" y2="574" stroke="#16a34a" stroke-width="1.5" marker-end="url(#arrow-green)"/>

  <!-- Verify proof -->
  <rect x="639" y="556" width="160" height="36" rx="8" fill="#dcfce7" stroke="#16a34a" stroke-width="1.2" filter="url(#shadow)"/>
  <text x="719" y="579" text-anchor="middle" font-size="11" font-weight="600" fill="#166534">RISC Zero verify()</text>

  <line x1="799" y1="574" x2="841" y2="574" stroke="#16a34a" stroke-width="1.5" marker-end="url(#arrow-green)"/>

  <!-- Status FINALIZED -->
  <rect x="843" y="550" width="170" height="48" rx="8" fill="#16a34a" filter="url(#shadow)"/>
  <text x="928" y="571" text-anchor="middle" font-size="12" font-weight="700" fill="#fff">FINALIZED</text>
  <text x="928" y="587" text-anchor="middle" font-size="9.5" fill="#bbf7d0">WSTON bond returned to operator</text>

  <!-- Permissionless label -->
  <text x="515" y="545" text-anchor="middle" font-size="9" fill="#16a34a" font-weight="600">PERMISSIONLESS</text>

  <!-- Monitor indicator -->
  <rect x="700" y="448" width="170" height="60" rx="8" fill="#fff" stroke="#fbbf24" stroke-width="1.2" filter="url(#shadow)"/>
  <text x="785" y="468" text-anchor="middle" font-size="11" font-weight="600" fill="#78350f">Monitor (monitor.rs)</text>
  <text x="785" y="484" text-anchor="middle" font-size="9.5" fill="#64748b">Poll pending executions</text>
  <text x="785" y="497" text-anchor="middle" font-size="9.5" fill="#dc2626">Alert if deadline &lt; 20 min</text>

  <!-- Batch proof hint -->
  <rect x="920" y="455" width="200" height="50" rx="8" fill="#fffbeb" stroke="#d97706" stroke-width="1" stroke-dasharray="4,2" filter="url(#shadow)"/>
  <text x="1020" y="474" text-anchor="middle" font-size="10" font-weight="600" fill="#92400e">Batch Proofs (V2)</text>
  <text x="1020" y="490" text-anchor="middle" font-size="8.5" fill="#78350f">N executions, 1 aggregated proof</text>

  <!-- ==================== FAILURE LANE ==================== -->
  <rect x="30" y="618" width="1140" height="170" rx="10" fill="url(#fail-grad)" stroke="#fca5a5" stroke-width="1.2"/>
  <rect x="30" y="618" width="220" height="30" rx="10" fill="#dc2626"/>
  <text x="140" y="638" text-anchor="middle" font-size="12" font-weight="600" fill="#fff">FAILURE PATH — Proof Timeout / Failure</text>

  <!-- Deadline reached -->
  <rect x="56" y="662" width="180" height="52" rx="8" fill="#fff" stroke="#fca5a5" stroke-width="1.2" filter="url(#shadow)"/>
  <text x="146" y="683" text-anchor="middle" font-size="11" font-weight="600" fill="#991b1b">Deadline Reached</text>
  <text x="146" y="698" text-anchor="middle" font-size="9.5" fill="#64748b">block.timestamp >= deadline</text>

  <line x1="236" y1="688" x2="278" y2="688" stroke="#dc2626" stroke-width="1.5" marker-end="url(#arrow-red)"/>

  <!-- slashExpired -->
  <rect x="280" y="662" width="170" height="52" rx="8" fill="#dc2626" filter="url(#shadow)"/>
  <text x="365" y="683" text-anchor="middle" font-size="12" font-weight="700" fill="#fff">slashExpired(nonce)</text>
  <text x="365" y="698" text-anchor="middle" font-size="9.5" fill="#fecaca">Permissionless</text>

  <line x1="450" y1="688" x2="492" y2="688" stroke="#dc2626" stroke-width="1.5" marker-end="url(#arrow-red)"/>

  <!-- Slash Distribution -->
  <rect x="494" y="656" width="200" height="64" rx="8" fill="#fef2f2" stroke="#dc2626" stroke-width="1.2" filter="url(#shadow)"/>
  <text x="594" y="675" text-anchor="middle" font-size="11" font-weight="700" fill="#991b1b">WSTON Slash Distribution</text>

  <!-- Distribution bars -->
  <rect x="510" y="686" width="108" height="10" rx="3" fill="#fca5a5"/>
  <rect x="510" y="686" width="14" height="10" rx="3" fill="#7c3aed"/>
  <rect x="524" y="686" width="80" height="10" rx="0" fill="#dc2626"/>
  <rect x="604" y="686" width="14" height="10" rx="3" fill="#991b1b"/>

  <text x="517" y="710" text-anchor="middle" font-size="8" fill="#7c3aed" font-weight="600">10%</text>
  <text x="564" y="710" text-anchor="middle" font-size="8" fill="#dc2626" font-weight="600">80%</text>
  <text x="611" y="710" text-anchor="middle" font-size="8" fill="#991b1b" font-weight="600">10%</text>

  <text x="517" y="721" text-anchor="middle" font-size="7.5" fill="#64748b">Finder</text>
  <text x="564" y="721" text-anchor="middle" font-size="7.5" fill="#64748b">Depositors</text>
  <text x="611" y="721" text-anchor="middle" font-size="7.5" fill="#64748b">Treasury</text>

  <!-- Self-slash path -->
  <rect x="280" y="728" width="170" height="44" rx="8" fill="#fff" stroke="#dc2626" stroke-width="1.2" filter="url(#shadow)"/>
  <text x="365" y="748" text-anchor="middle" font-size="11" font-weight="600" fill="#991b1b">selfSlash(nonce)</text>
  <text x="365" y="763" text-anchor="middle" font-size="9" fill="#64748b">Owner-only, no finder fee</text>

  <line x1="450" y1="750" x2="492" y2="720" stroke="#dc2626" stroke-width="1.2" stroke-dasharray="5,3" marker-end="url(#arrow-red)"/>

  <!-- Status SLASHED -->
  <rect x="740" y="662" width="160" height="52" rx="8" fill="#991b1b" filter="url(#shadow)"/>
  <text x="820" y="685" text-anchor="middle" font-size="12" font-weight="700" fill="#fff">SLASHED</text>
  <text x="820" y="700" text-anchor="middle" font-size="9.5" fill="#fecaca">WSTON bond distributed</text>

  <line x1="694" y1="688" x2="738" y2="688" stroke="#dc2626" stroke-width="1.5" marker-end="url(#arrow-red)"/>

  <!-- ==================== STATE MACHINE ==================== -->
  <rect x="940" y="636" width="220" height="140" rx="10" fill="#fff" stroke="#e2e8f0" stroke-width="1.2" filter="url(#shadow)"/>
  <text x="1050" y="658" text-anchor="middle" font-size="12" font-weight="700" fill="#0f172a">State Machine</text>

  <!-- States -->
  <circle cx="980" cy="690" r="14" fill="#e2e8f0" stroke="#94a3b8" stroke-width="1.5"/>
  <text x="980" y="694" text-anchor="middle" font-size="7.5" font-weight="700" fill="#475569">EMPTY</text>

  <circle cx="1050" cy="690" r="14" fill="#dbeafe" stroke="#2563eb" stroke-width="1.5"/>
  <text x="1050" y="694" text-anchor="middle" font-size="6.5" font-weight="700" fill="#1e40af">PEND</text>

  <circle cx="1120" cy="670" r="14" fill="#dcfce7" stroke="#16a34a" stroke-width="1.5"/>
  <text x="1120" y="674" text-anchor="middle" font-size="6" font-weight="700" fill="#166534">FINAL</text>

  <circle cx="1120" cy="710" r="14" fill="#fee2e2" stroke="#dc2626" stroke-width="1.5"/>
  <text x="1120" y="714" text-anchor="middle" font-size="6" font-weight="700" fill="#991b1b">SLASH</text>

  <!-- State transitions -->
  <line x1="994" y1="690" x2="1034" y2="690" stroke="#2563eb" stroke-width="1.2" marker-end="url(#arrow-blue)"/>
  <line x1="1064" y1="682" x2="1104" y2="672" stroke="#16a34a" stroke-width="1.2" marker-end="url(#arrow-green)"/>
  <line x1="1064" y1="698" x2="1104" y2="708" stroke="#dc2626" stroke-width="1.2" marker-end="url(#arrow-red)"/>

  <text x="1014" y="684" text-anchor="middle" font-size="6.5" fill="#2563eb">exec</text>
  <text x="1088" y="672" text-anchor="middle" font-size="6.5" fill="#16a34a">proof</text>
  <text x="1088" y="712" text-anchor="middle" font-size="6.5" fill="#dc2626">slash</text>

  <!-- Legend -->
  <text x="960" y="742" font-size="8" fill="#64748b">Window: 15min-24hr (default 1hr)</text>
  <text x="960" y="755" font-size="8" fill="#64748b">Bond: WSTON (ERC20)</text>
  <text x="960" y="768" font-size="8" fill="#64748b">Chain-agnostic: any EVM</text>

  <!-- ==================== BOTTOM LEGEND ==================== -->
  <rect x="30" y="802" width="1140" height="105" rx="10" fill="#fff" stroke="#e2e8f0" stroke-width="1"/>

  <!-- Contract column -->
  <text x="56" y="824" font-size="11" font-weight="700" fill="#0f172a">Contracts</text>
  <rect x="56" y="832" width="10" height="10" rx="2" fill="#2563eb"/>
  <text x="72" y="842" font-size="9" fill="#475569">OptimisticKernelVault.sol</text>
  <rect x="56" y="848" width="10" height="10" rx="2" fill="#7c3aed"/>
  <text x="72" y="858" font-size="9" fill="#475569">WSTONBondManager.sol</text>
  <rect x="56" y="864" width="10" height="10" rx="2" fill="#16a34a"/>
  <text x="72" y="874" font-size="9" fill="#475569">KernelExecutionVerifier.sol</text>
  <rect x="56" y="880" width="10" height="10" rx="2" fill="#64748b"/>
  <text x="72" y="890" font-size="9" fill="#475569">VaultFactory.sol</text>

  <!-- Rust column -->
  <text x="280" y="824" font-size="11" font-weight="700" fill="#0f172a">Rust Modules</text>
  <rect x="280" y="832" width="10" height="10" rx="2" fill="#ea580c"/>
  <text x="296" y="842" font-size="9" fill="#475569">predict.rs — journal construction</text>
  <rect x="280" y="848" width="10" height="10" rx="2" fill="#ea580c"/>
  <text x="296" y="858" font-size="9" fill="#475569">optimistic.rs — on-chain submission</text>
  <rect x="280" y="864" width="10" height="10" rx="2" fill="#ea580c"/>
  <text x="296" y="874" font-size="9" fill="#475569">prove_worker.rs — background prover</text>
  <rect x="280" y="880" width="10" height="10" rx="2" fill="#ea580c"/>
  <text x="296" y="890" font-size="9" fill="#475569">monitor.rs — deadline monitoring</text>

  <!-- Key metrics -->
  <text x="560" y="824" font-size="11" font-weight="700" fill="#0f172a">Key Properties</text>
  <text x="560" y="844" font-size="9.5" fill="#475569">Chain-agnostic: deploys on any EVM chain</text>
  <text x="560" y="860" font-size="9.5" fill="#475569">Bond token: WSTON (Wrapped Staked TON, 27 dec)</text>
  <text x="560" y="876" font-size="9.5" fill="#475569">Phase 1: &lt;1s | Phase 2: 8-12 min (async)</text>
  <text x="560" y="892" font-size="9.5" fill="#475569">Backward compatible: sync execute() always works</text>

  <!-- Security -->
  <text x="850" y="824" font-size="11" font-weight="700" fill="#0f172a">Security Invariants</text>
  <text x="850" y="844" font-size="9.5" fill="#475569">WSTON bond >= max loss (fraud unprofitable)</text>
  <text x="850" y="860" font-size="9.5" fill="#475569">Nonce ordering preserved</text>
  <text x="850" y="876" font-size="9.5" fill="#475569">submitProof works while paused</text>
  <text x="850" y="892" font-size="9.5" fill="#475569">Permissionless proof submission + slashing</text>

  <!-- Queue arrow from Phase 1 to Phase 2 -->
  <path d="M 131 342 L 131 452" stroke="#ea580c" stroke-width="1.5" fill="none" stroke-dasharray="6,3" marker-end="url(#arrow-orange)"/>
  <text x="141" y="400" font-size="8" fill="#ea580c" font-weight="600">Queue proof job</text>
</svg>
